<svg width="21" height="20" viewBox="0 0 21 20" fill="none" xmlns="http://www.w3.org/2000/svg">
<path d="M17.1663 9.79173H3.83299C3.64132 9.79173 3.46632 9.7084 3.34966 9.5584C3.23299 9.41673 3.18299 9.21673 3.22466 9.0334L4.16632 4.5334C4.47466 3.07507 5.09966 1.7334 7.57466 1.7334H13.433C15.908 1.7334 16.533 3.0834 16.8413 4.5334L17.783 9.04173C17.8247 9.22507 17.7747 9.41673 17.658 9.56673C17.533 9.7084 17.358 9.79173 17.1663 9.79173ZM4.59966 8.54173H16.3913L15.608 4.79173C15.3747 3.70007 15.0997 2.9834 13.4247 2.9834H7.57466C5.89966 2.9834 5.62466 3.70007 5.39132 4.79173L4.59966 8.54173Z" fill="#6C7278"/>
<path d="M17.133 18.9584H15.5663C14.2163 18.9584 13.958 18.1834 13.7913 17.6751L13.6247 17.1751C13.408 16.5417 13.383 16.4584 12.633 16.4584H8.36633C7.61633 16.4584 7.56633 16.6001 7.37466 17.1751L7.208 17.6751C7.033 18.1917 6.783 18.9584 5.433 18.9584H3.86633C3.208 18.9584 2.57466 18.6834 2.133 18.2001C1.69966 17.7251 1.49133 17.0917 1.54966 16.4584L2.01633 11.3834C2.14133 10.0084 2.508 8.54175 5.183 8.54175H15.8163C18.4913 8.54175 18.8497 10.0084 18.983 11.3834L19.4497 16.4584C19.508 17.0917 19.2997 17.7251 18.8663 18.2001C18.4247 18.6834 17.7913 18.9584 17.133 18.9584ZM8.36633 15.2084H12.633C14.1497 15.2084 14.508 15.8834 14.808 16.7667L14.983 17.2834C15.1247 17.7084 15.1247 17.7167 15.5747 17.7167H17.1413C17.4497 17.7167 17.7413 17.5917 17.9497 17.3667C18.1497 17.1501 18.2413 16.8751 18.2163 16.5834L17.7497 11.5084C17.6413 10.3834 17.508 9.80008 15.833 9.80008H5.183C3.49966 9.80008 3.36633 10.3834 3.26633 11.5084L2.79966 16.5834C2.77466 16.8751 2.86633 17.1501 3.06633 17.3667C3.26633 17.5917 3.56633 17.7167 3.87466 17.7167H5.44133C5.89133 17.7167 5.89133 17.7084 6.033 17.2917L6.19966 16.7834C6.408 16.1167 6.71633 15.2084 8.36633 15.2084Z" fill="#6C7278"/>
<path d="M3.833 7.29175H2.99966C2.658 7.29175 2.37466 7.00841 2.37466 6.66675C2.37466 6.32508 2.658 6.04175 2.99966 6.04175H3.833C4.17466 6.04175 4.458 6.32508 4.458 6.66675C4.458 7.00841 4.17466 7.29175 3.833 7.29175Z" fill="#6C7278"/>
<path d="M17.9997 7.29175H17.1663C16.8247 7.29175 16.5413 7.00841 16.5413 6.66675C16.5413 6.32508 16.8247 6.04175 17.1663 6.04175H17.9997C18.3413 6.04175 18.6247 6.32508 18.6247 6.66675C18.6247 7.00841 18.3413 7.29175 17.9997 7.29175Z" fill="#292D32"/>
<path d="M10.4997 4.79167C10.158 4.79167 9.87466 4.50833 9.87466 4.16667V2.5C9.87466 2.15833 10.158 1.875 10.4997 1.875C10.8413 1.875 11.1247 2.15833 11.1247 2.5V4.16667C11.1247 4.50833 10.8413 4.79167 10.4997 4.79167Z" fill="#292D32"/>
<path d="M11.7497 4.79175H9.24966C8.908 4.79175 8.62466 4.50841 8.62466 4.16675C8.62466 3.82508 8.908 3.54175 9.24966 3.54175H11.7497C12.0913 3.54175 12.3747 3.82508 12.3747 4.16675C12.3747 4.50841 12.0913 4.79175 11.7497 4.79175Z" fill="#292D32"/>
<path d="M7.99966 13.125H5.49966C5.158 13.125 4.87466 12.8417 4.87466 12.5C4.87466 12.1583 5.158 11.875 5.49966 11.875H7.99966C8.34133 11.875 8.62466 12.1583 8.62466 12.5C8.62466 12.8417 8.34133 13.125 7.99966 13.125Z" fill="#292D32"/>
<path d="M15.4997 13.125H12.9997C12.658 13.125 12.3747 12.8417 12.3747 12.5C12.3747 12.1583 12.658 11.875 12.9997 11.875H15.4997C15.8413 11.875 16.1247 12.1583 16.1247 12.5C16.1247 12.8417 15.8413 13.125 15.4997 13.125Z" fill="#292D32"/>
</svg>
