<svg width="21" height="20" viewBox="0 0 21 20" fill="none" xmlns="http://www.w3.org/2000/svg">
<path d="M18.625 6.66673C18.625 7.0084 18.3417 7.29173 18 7.29173H3C2.65833 7.29173 2.375 7.0084 2.375 6.66673C2.375 6.32507 2.65833 6.04173 3 6.04173H3.85L4.16667 4.5334C4.46667 3.07507 5.09167 1.7334 7.575 1.7334H13.425C15.9083 1.7334 16.5333 3.07507 16.8333 4.5334L17.15 6.04173H18C18.3417 6.04173 18.625 6.32507 18.625 6.66673Z" fill="#6C7278"/>
<path d="M18.9833 11.3834C18.8583 10.0084 18.4917 8.54175 15.8167 8.54175H5.18333C2.50833 8.54175 2.15 10.0084 2.01667 11.3834L1.55 16.4584C1.49167 17.0917 1.7 17.7251 2.13333 18.2001C2.575 18.6834 3.2 18.9584 3.86667 18.9584H5.43333C6.78333 18.9584 7.04167 18.1834 7.20833 17.6751L7.375 17.1751C7.56667 16.6001 7.61667 16.4584 8.36667 16.4584H12.6333C13.3833 16.4584 13.4083 16.5417 13.625 17.1751L13.7917 17.6751C13.9583 18.1834 14.2167 18.9584 15.5667 18.9584H17.1333C17.7917 18.9584 18.425 18.6834 18.8667 18.2001C19.3 17.7251 19.5083 17.0917 19.45 16.4584L18.9833 11.3834ZM8 13.1251H5.5C5.15833 13.1251 4.875 12.8417 4.875 12.5001C4.875 12.1584 5.15833 11.8751 5.5 11.8751H8C8.34167 11.8751 8.625 12.1584 8.625 12.5001C8.625 12.8417 8.34167 13.1251 8 13.1251ZM15.5 13.1251H13C12.6583 13.1251 12.375 12.8417 12.375 12.5001C12.375 12.1584 12.6583 11.8751 13 11.8751H15.5C15.8417 11.8751 16.125 12.1584 16.125 12.5001C16.125 12.8417 15.8417 13.1251 15.5 13.1251Z" fill="#6C7278"/>
</svg>
