<svg width="16" height="16" viewBox="0 0 16 16" fill="none" xmlns="http://www.w3.org/2000/svg">
<path d="M9.99998 15.1666H5.99998C2.37998 15.1666 0.833313 13.62 0.833313 9.99998V5.99998C0.833313 2.37998 2.37998 0.833313 5.99998 0.833313H7.33331C7.60665 0.833313 7.83331 1.05998 7.83331 1.33331C7.83331 1.60665 7.60665 1.83331 7.33331 1.83331H5.99998C2.92665 1.83331 1.83331 2.92665 1.83331 5.99998V9.99998C1.83331 13.0733 2.92665 14.1666 5.99998 14.1666H9.99998C13.0733 14.1666 14.1666 13.0733 14.1666 9.99998V8.66665C14.1666 8.39331 14.3933 8.16665 14.6666 8.16665C14.94 8.16665 15.1666 8.39331 15.1666 8.66665V9.99998C15.1666 13.62 13.62 15.1666 9.99998 15.1666Z" fill="#B92325"/>
<path d="M5.66664 11.7933C5.25997 11.7933 4.88664 11.6466 4.61331 11.38C4.28664 11.0533 4.14664 10.58 4.21997 10.08L4.50664 8.07331C4.55997 7.68664 4.81331 7.18664 5.08664 6.91331L10.34 1.65998C11.6666 0.333311 13.0133 0.333311 14.34 1.65998C15.0666 2.38664 15.3933 3.12664 15.3266 3.86664C15.2666 4.46665 14.9466 5.05331 14.34 5.65331L9.08664 10.9066C8.8133 11.18 8.3133 11.4333 7.92664 11.4866L5.91997 11.7733C5.83331 11.7933 5.74664 11.7933 5.66664 11.7933ZM11.0466 2.36664L5.7933 7.61998C5.66664 7.74664 5.51997 8.03998 5.4933 8.21331L5.20664 10.22C5.17997 10.4133 5.21997 10.5733 5.31997 10.6733C5.41997 10.7733 5.57997 10.8133 5.7733 10.7866L7.77997 10.5C7.9533 10.4733 8.2533 10.3266 8.3733 10.2L13.6266 4.94664C14.06 4.51331 14.2866 4.12664 14.32 3.76664C14.36 3.33331 14.1333 2.87331 13.6266 2.35998C12.56 1.29331 11.8266 1.59331 11.0466 2.36664Z" fill="#B92325"/>
<path d="M13.2334 6.55331C13.1867 6.55331 13.14 6.54664 13.1 6.53331C11.3467 6.03998 9.95335 4.64664 9.46002 2.89331C9.38668 2.62664 9.54002 2.35331 9.80668 2.27331C10.0734 2.19998 10.3467 2.35331 10.42 2.61998C10.82 4.03998 11.9467 5.16664 13.3667 5.56664C13.6333 5.63998 13.7867 5.91998 13.7134 6.18664C13.6534 6.41331 13.4534 6.55331 13.2334 6.55331Z" fill="#B92325"/>
</svg>
