<svg width="20" height="20" viewBox="0 0 20 20" fill="none" xmlns="http://www.w3.org/2000/svg">
<path d="M9.99999 5.00001C9.99999 5.44204 10.1756 5.86596 10.4882 6.17852C10.8007 6.49108 11.2246 6.66668 11.6667 6.66668C12.1087 6.66668 12.5326 6.49108 12.8452 6.17852C13.1577 5.86596 13.3333 5.44204 13.3333 5.00001M9.99999 5.00001C9.99999 4.55798 10.1756 4.13406 10.4882 3.8215C10.8007 3.50894 11.2246 3.33334 11.6667 3.33334C12.1087 3.33334 12.5326 3.50894 12.8452 3.8215C13.1577 4.13406 13.3333 4.55798 13.3333 5.00001M9.99999 5.00001H3.33333M13.3333 5.00001H16.6667M4.99999 10C4.99999 10.442 5.17559 10.866 5.48815 11.1785C5.80071 11.4911 6.22463 11.6667 6.66666 11.6667C7.10869 11.6667 7.53261 11.4911 7.84517 11.1785C8.15773 10.866 8.33333 10.442 8.33333 10M4.99999 10C4.99999 9.55798 5.17559 9.13406 5.48815 8.8215C5.80071 8.50894 6.22463 8.33334 6.66666 8.33334C7.10869 8.33334 7.53261 8.50894 7.84517 8.8215C8.15773 9.13406 8.33333 9.55798 8.33333 10M4.99999 10H3.33333M8.33333 10H16.6667M12.5 15C12.5 15.442 12.6756 15.866 12.9882 16.1785C13.3007 16.4911 13.7246 16.6667 14.1667 16.6667C14.6087 16.6667 15.0326 16.4911 15.3452 16.1785C15.6577 15.866 15.8333 15.442 15.8333 15M12.5 15C12.5 14.558 12.6756 14.1341 12.9882 13.8215C13.3007 13.5089 13.7246 13.3333 14.1667 13.3333C14.6087 13.3333 15.0326 13.5089 15.3452 13.8215C15.6577 14.1341 15.8333 14.558 15.8333 15M12.5 15H3.33333M15.8333 15H16.6667" stroke="#1A428E" stroke-width="1.5" stroke-linecap="round" stroke-linejoin="round"/>
</svg>
