<svg width="31" height="30" viewBox="0 0 31 30" fill="none" xmlns="http://www.w3.org/2000/svg">
<path d="M23.6628 3.08719C23.2963 2.72062 22.7037 2.72062 22.3372 3.08719L20.1875 5.23688L18.1981 3.2475C17.3131 2.3625 16.1366 1.875 14.8841 1.875H8.9375C6.35281 1.875 4.25 3.97781 4.25 6.5625V25.3125C4.25 26.8631 5.51187 28.125 7.0625 28.125H23.9375C25.4881 28.125 26.75 26.8631 26.75 25.3125V12.1875C26.75 11.9391 26.6516 11.7 26.4753 11.5247L25.2631 10.3125L27.4128 8.16281C27.7794 7.79625 27.7794 7.20375 27.4128 6.83719L23.6628 3.08719ZM24.875 25.3125C24.875 25.8291 24.455 26.25 23.9375 26.25H7.0625C6.545 26.25 6.125 25.8291 6.125 25.3125V6.5625C6.125 5.01187 7.38687 3.75 8.9375 3.75H14.8841C15.635 3.75 16.3419 4.0425 16.8725 4.57312L24.875 12.5756V25.3125ZM23.9375 8.98688L21.5131 6.5625L23 5.07562L25.4244 7.5L23.9375 8.98688Z" fill="#B92325"/>
<path d="M14.5625 8.4375H8.9375C8.41906 8.4375 8 8.0175 8 7.5V6.5625C8 6.045 8.41906 5.625 8.9375 5.625H14.5625C15.0809 5.625 15.5 6.045 15.5 6.5625V7.5C15.5 8.0175 15.0809 8.4375 14.5625 8.4375Z" fill="#B92325"/>
<path d="M15.0312 10.3125C15.0303 10.3125 15.0284 10.3125 15.0275 10.3125C14.4566 10.3125 13.9316 10.575 13.5847 11.0334C12.1991 12.8709 9.875 16.3706 9.875 19.1709C9.875 22.0406 12.1888 24.375 15.0312 24.375C17.8738 24.375 20.1875 22.0406 20.1875 19.1709C20.1875 16.4203 17.8625 12.8963 16.475 11.04C16.13 10.5788 15.6031 10.3134 15.0312 10.3125ZM15.0312 22.5C13.2219 22.5 11.75 21.0066 11.75 19.1709C11.75 16.8741 13.9972 13.6097 15.0275 12.2353C16.0588 13.6247 18.3125 16.92 18.3125 19.1709C18.3125 21.0066 16.8406 22.5 15.0312 22.5Z" fill="#B92325"/>
</svg>
