<svg width="25" height="25" viewBox="0 0 25 25" fill="none" xmlns="http://www.w3.org/2000/svg">
<path d="M20.54 7.31994L14.78 3.28994C13.21 2.18994 10.8 2.24994 9.29001 3.41994L4.28001 7.32994C3.28001 8.10994 2.49001 9.70994 2.49001 10.9699V17.8699C2.49001 20.4199 4.56001 22.4999 7.11001 22.4999H17.89C20.44 22.4999 22.51 20.4299 22.51 17.8799V11.0999C22.51 9.74994 21.64 8.08994 20.54 7.31994ZM13.25 18.4999C13.25 18.9099 12.91 19.2499 12.5 19.2499C12.09 19.2499 11.75 18.9099 11.75 18.4999V15.4999C11.75 15.0899 12.09 14.7499 12.5 14.7499C12.91 14.7499 13.25 15.0899 13.25 15.4999V18.4999Z" fill="#B92325"/>
</svg>
