<svg width="20" height="20" viewBox="0 0 20 20" fill="none" xmlns="http://www.w3.org/2000/svg">
<path d="M2.5 5.83335C2.5 5.39133 2.67559 4.9674 2.98816 4.65484C3.30072 4.34228 3.72464 4.16669 4.16667 4.16669H15.8333C16.2754 4.16669 16.6993 4.34228 17.0118 4.65484C17.3244 4.9674 17.5 5.39133 17.5 5.83335M2.5 5.83335V14.1667C2.5 14.6087 2.67559 15.0326 2.98816 15.3452C3.30072 15.6578 3.72464 15.8334 4.16667 15.8334H15.8333C16.2754 15.8334 16.6993 15.6578 17.0118 15.3452C17.3244 15.0326 17.5 14.6087 17.5 14.1667V5.83335M2.5 5.83335L10 10.8334L17.5 5.83335" stroke="#475569" stroke-width="1.5" stroke-linecap="round" stroke-linejoin="round"/>
</svg>
