<svg width="24" height="26" viewBox="0 0 24 26" fill="none" xmlns="http://www.w3.org/2000/svg">
<ellipse cx="12" cy="23.4" rx="6" ry="2.4" fill="#0F2858" fill-opacity="0.1"/>
<g clip-path="url(#clip0_3298_9573)">
<path d="M12 11.5862V23.5862" stroke="#556080" stroke-width="2" stroke-miterlimit="10" stroke-linecap="round"/>
<path d="M11.9999 11.5862C15.1993 11.5862 17.793 8.99255 17.793 5.7931C17.793 2.59366 15.1993 0 11.9999 0C8.80045 0 6.20679 2.59366 6.20679 5.7931C6.20679 8.99255 8.80045 11.5862 11.9999 11.5862Z" fill="#175CDE"/>
<path d="M9.93108 5.3793C10.6167 5.3793 11.1725 4.82352 11.1725 4.13792C11.1725 3.45233 10.6167 2.89655 9.93108 2.89655C9.24548 2.89655 8.6897 3.45233 8.6897 4.13792C8.6897 4.82352 9.24548 5.3793 9.93108 5.3793Z" fill="#8DB5FF"/>
</g>
<defs>
<clipPath id="clip0_3298_9573">
<rect width="24" height="24" fill="white"/>
</clipPath>
</defs>
</svg>
