<svg width="20" height="20" viewBox="0 0 20 20" fill="none" xmlns="http://www.w3.org/2000/svg">
<path d="M15.8335 9.1668H17.5001M16.6668 8.33347V10.0001M10.0001 2.50014C10.1101 2.50014 10.2193 2.50014 10.3276 2.50014C9.25709 3.49489 8.56897 4.83334 8.38289 6.28282C8.1968 7.7323 8.52453 9.20116 9.30909 10.4341C10.0937 11.667 11.2855 12.586 12.6773 13.0314C14.0692 13.4767 15.5731 13.4203 16.9276 12.8718C16.4066 14.1255 15.555 15.2143 14.4636 16.022C13.3723 16.8297 12.0822 17.326 10.7309 17.458C9.37962 17.5899 8.01786 17.3526 6.79089 16.7713C5.56391 16.19 4.51774 15.2866 3.76397 14.1573C3.0102 13.0281 2.5771 11.7154 2.51088 10.3593C2.44466 9.00319 2.7478 7.65455 3.38795 6.45723C4.02811 5.25991 4.98128 4.25882 6.14578 3.56075C7.31028 2.86267 8.64244 2.4938 10.0001 2.49347V2.50014ZM14.1668 3.33347C14.1668 3.7755 14.3424 4.19942 14.655 4.51198C14.9675 4.82454 15.3915 5.00014 15.8335 5.00014C15.3915 5.00014 14.9675 5.17573 14.655 5.48829C14.3424 5.80085 14.1668 6.22477 14.1668 6.6668C14.1668 6.22477 13.9912 5.80085 13.6787 5.48829C13.3661 5.17573 12.9422 5.00014 12.5001 5.00014C12.9422 5.00014 13.3661 4.82454 13.6787 4.51198C13.9912 4.19942 14.1668 3.7755 14.1668 3.33347Z" stroke="#475569" stroke-width="1.3" stroke-linecap="round" stroke-linejoin="round"/>
</svg>
