<svg width="24" height="24" viewBox="0 0 24 24" fill="none" xmlns="http://www.w3.org/2000/svg">
<path d="M13.05 16.25H11.17C9.84001 16.25 8.75 15.13 8.75 13.75C8.75 13.34 9.09 13 9.5 13C9.91 13 10.25 13.34 10.25 13.75C10.25 14.3 10.66 14.75 11.17 14.75H13.05C13.44 14.75 13.75 14.4 13.75 13.97C13.75 13.43 13.6 13.35 13.26 13.23L10.25 12.18C9.61 11.95 8.75 11.49 8.75 10.02C8.75 8.76999 9.74001 7.73999 10.95 7.73999H12.83C14.16 7.73999 15.25 8.85999 15.25 10.24C15.25 10.65 14.91 10.99 14.5 10.99C14.09 10.99 13.75 10.65 13.75 10.24C13.75 9.68999 13.34 9.23999 12.83 9.23999H10.95C10.56 9.23999 10.25 9.58999 10.25 10.02C10.25 10.56 10.4 10.64 10.74 10.76L13.75 11.81C14.39 12.04 15.25 12.5 15.25 13.97C15.25 15.23 14.26 16.25 13.05 16.25Z" fill="#292D32"/>
<path d="M12 17.25C11.59 17.25 11.25 16.91 11.25 16.5V7.5C11.25 7.09 11.59 6.75 12 6.75C12.41 6.75 12.75 7.09 12.75 7.5V16.5C12.75 16.91 12.41 17.25 12 17.25Z" fill="#292D32"/>
<path d="M12 22.75C6.07 22.75 1.25 17.93 1.25 12C1.25 6.07 6.07 1.25 12 1.25C12.41 1.25 12.75 1.59 12.75 2C12.75 2.41 12.41 2.75 12 2.75C6.9 2.75 2.75 6.9 2.75 12C2.75 17.1 6.9 21.25 12 21.25C17.1 21.25 21.25 17.1 21.25 12C21.25 11.59 21.59 11.25 22 11.25C22.41 11.25 22.75 11.59 22.75 12C22.75 17.93 17.93 22.75 12 22.75Z" fill="#292D32"/>
<path d="M22.25 5.15753C21.84 5.15753 21.5 4.81753 21.5 4.40753V3.1275C21.5 2.9075 21.32 2.71753 21.09 2.71753H15.75C15.34 2.71753 15 2.37753 15 1.96753C15 1.55753 15.34 1.21753 15.75 1.21753H21.09C22.14 1.21753 23 2.0775 23 3.1275V4.40753C23 4.81753 22.66 5.15753 22.25 5.15753Z" fill="#292D32"/>
<path d="M16.9699 3.93747C16.7799 3.93747 16.59 3.8675 16.44 3.7175L15.2199 2.49753C14.9299 2.20753 14.9299 1.72747 15.2199 1.43747L16.44 0.2175C16.73 -0.0725 17.21 -0.0725 17.5 0.2175C17.79 0.5075 17.79 0.987498 17.5 1.2775L16.81 1.9675L17.5 2.6575C17.79 2.9475 17.79 3.4275 17.5 3.7175C17.35 3.8675 17.1599 3.93747 16.9699 3.93747Z" fill="#292D32"/>
<path d="M22.25 7.94H16.91C15.86 7.94 15 7.07997 15 6.02997V4.75C15 4.34 15.34 4 15.75 4C16.16 4 16.5 4.34 16.5 4.75V6.02997C16.5 6.24997 16.68 6.44 16.91 6.44H22.25C22.66 6.44 23 6.78 23 7.19C23 7.6 22.66 7.94 22.25 7.94Z" fill="#292D32"/>
<path d="M20.7475 8.93747C20.5575 8.93747 20.3675 8.8675 20.2175 8.7175C19.9275 8.4275 19.9275 7.94744 20.2175 7.65744L20.9075 6.9675L20.2175 6.2775C19.9275 5.9875 19.9275 5.5075 20.2175 5.2175C20.5075 4.9275 20.9875 4.9275 21.2775 5.2175L22.4975 6.43747C22.7875 6.72747 22.7875 7.20747 22.4975 7.49747L21.2775 8.7175C21.1375 8.8675 20.9375 8.93747 20.7475 8.93747Z" fill="#292D32"/>
</svg>
