<svg width="21" height="20" viewBox="0 0 21 20" fill="none" xmlns="http://www.w3.org/2000/svg">
<path d="M17.5833 13.9583H15.7083V12.0833C15.7083 11.7416 15.425 11.4583 15.0833 11.4583C14.7417 11.4583 14.4583 11.7416 14.4583 12.0833V13.9583H12.5833C12.2417 13.9583 11.9583 14.2416 11.9583 14.5833C11.9583 14.9249 12.2417 15.2083 12.5833 15.2083H14.4583V17.0833C14.4583 17.4249 14.7417 17.7083 15.0833 17.7083C15.425 17.7083 15.7083 17.4249 15.7083 17.0833V15.2083H17.5833C17.925 15.2083 18.2083 14.9249 18.2083 14.5833C18.2083 14.2416 17.925 13.9583 17.5833 13.9583Z" fill="#6C7278"/>
<path d="M18.8333 7.10008V3.31675C18.8333 2.14175 18.3 1.66675 16.975 1.66675H13.6083C12.2833 1.66675 11.75 2.14175 11.75 3.31675V7.09175C11.75 8.27508 12.2833 8.74175 13.6083 8.74175H16.975C18.3 8.75008 18.8333 8.27508 18.8333 7.10008Z" fill="#6C7278"/>
<path d="M9.24999 7.10008V3.31675C9.24999 2.14175 8.71666 1.66675 7.39166 1.66675H4.02499C2.69999 1.66675 2.16666 2.14175 2.16666 3.31675V7.09175C2.16666 8.27508 2.69999 8.74175 4.02499 8.74175H7.39166C8.71666 8.75008 9.24999 8.27508 9.24999 7.10008Z" fill="#6C7278"/>
<path d="M9.24999 16.475V13.1083C9.24999 11.7833 8.71666 11.25 7.39166 11.25H4.02499C2.69999 11.25 2.16666 11.7833 2.16666 13.1083V16.475C2.16666 17.8 2.69999 18.3333 4.02499 18.3333H7.39166C8.71666 18.3333 9.24999 17.8 9.24999 16.475Z" fill="#6C7278"/>
</svg>
