<svg width="21" height="20" viewBox="0 0 21 20" fill="none" xmlns="http://www.w3.org/2000/svg">
<path d="M16.975 9.37508H13.6083C11.9333 9.37508 11.125 8.55841 11.125 6.89175V3.52508C11.125 1.85008 11.9417 1.04175 13.6083 1.04175H16.975C18.65 1.04175 19.4583 1.85841 19.4583 3.52508V6.89175C19.4583 8.55841 18.6417 9.37508 16.975 9.37508ZM13.6083 2.29175C12.625 2.29175 12.375 2.54175 12.375 3.52508V6.89175C12.375 7.87508 12.625 8.12508 13.6083 8.12508H16.975C17.9583 8.12508 18.2083 7.87508 18.2083 6.89175V3.52508C18.2083 2.54175 17.9583 2.29175 16.975 2.29175H13.6083V2.29175Z" fill="#6C7278"/>
<path d="M7.39166 9.37508H4.02499C2.34999 9.37508 1.54166 8.63341 1.54166 7.10008V3.31675C1.54166 1.78341 2.35832 1.04175 4.02499 1.04175H7.39166C9.06666 1.04175 9.87499 1.78341 9.87499 3.31675V7.09175C9.87499 8.63341 9.05832 9.37508 7.39166 9.37508ZM4.02499 2.29175C2.90832 2.29175 2.79166 2.60841 2.79166 3.31675V7.09175C2.79166 7.80841 2.90832 8.11675 4.02499 8.11675H7.39166C8.50832 8.11675 8.62499 7.80008 8.62499 7.09175V3.31675C8.62499 2.60008 8.50832 2.29175 7.39166 2.29175H4.02499Z" fill="#6C7278"/>
<path d="M7.39166 18.9583H4.02499C2.34999 18.9583 1.54166 18.1417 1.54166 16.475V13.1083C1.54166 11.4333 2.35832 10.625 4.02499 10.625H7.39166C9.06666 10.625 9.87499 11.4417 9.87499 13.1083V16.475C9.87499 18.1417 9.05832 18.9583 7.39166 18.9583ZM4.02499 11.875C3.04166 11.875 2.79166 12.125 2.79166 13.1083V16.475C2.79166 17.4583 3.04166 17.7083 4.02499 17.7083H7.39166C8.37499 17.7083 8.62499 17.4583 8.62499 16.475V13.1083C8.62499 12.125 8.37499 11.875 7.39166 11.875H4.02499Z" fill="#6C7278"/>
<path d="M17.5833 15.2083H12.5833C12.2417 15.2083 11.9583 14.9249 11.9583 14.5833C11.9583 14.2416 12.2417 13.9583 12.5833 13.9583H17.5833C17.925 13.9583 18.2083 14.2416 18.2083 14.5833C18.2083 14.9249 17.925 15.2083 17.5833 15.2083Z" fill="#6C7278"/>
<path d="M15.0833 17.7083C14.7417 17.7083 14.4583 17.4249 14.4583 17.0833V12.0833C14.4583 11.7416 14.7417 11.4583 15.0833 11.4583C15.425 11.4583 15.7083 11.7416 15.7083 12.0833V17.0833C15.7083 17.4249 15.425 17.7083 15.0833 17.7083Z" fill="#6C7278"/>
</svg>
