<svg width="375" height="16" viewBox="0 0 375 16" fill="none" xmlns="http://www.w3.org/2000/svg">
<mask id="mask0_3216_5099" style="mask-type:alpha" maskUnits="userSpaceOnUse" x="0" y="0" width="375" height="16">
<rect width="375" height="16" fill="#D9D9D9"/>
</mask>
<g mask="url(#mask0_3216_5099)">
<path d="M3.4 12.8C2.2 14.4 -0.199999 14.4 -1.4 12.8L-7.4 4.8C-8.88328 2.82229 -7.47214 -2.26657e-06 -5 -2.05045e-06L7 -1.00137e-06C9.47214 -7.85253e-07 10.8833 2.82229 9.4 4.8L3.4 12.8Z" fill="white"/>
<path d="M15.4 12.8C14.2 14.4 11.8 14.4 10.6 12.8L4.6 4.8C3.11672 2.82229 4.52786 -2.26657e-06 7 -2.05045e-06L19 -1.00137e-06C21.4721 -7.85253e-07 22.8833 2.82229 21.4 4.8L15.4 12.8Z" fill="white"/>
<path d="M27.4 12.8C26.2 14.4 23.8 14.4 22.6 12.8L16.6 4.8C15.1167 2.82229 16.5279 -2.26657e-06 19 -2.05045e-06L31 -1.00137e-06C33.4721 -7.85253e-07 34.8833 2.82229 33.4 4.8L27.4 12.8Z" fill="white"/>
<path d="M39.4 12.8C38.2 14.4 35.8 14.4 34.6 12.8L28.6 4.8C27.1167 2.82229 28.5279 -2.26657e-06 31 -2.05045e-06L43 -1.00137e-06C45.4721 -7.85253e-07 46.8833 2.82229 45.4 4.8L39.4 12.8Z" fill="white"/>
<path d="M51.4 12.8C50.2 14.4 47.8 14.4 46.6 12.8L40.6 4.8C39.1167 2.82229 40.5279 -2.26657e-06 43 -2.05045e-06L55 -1.00137e-06C57.4721 -7.85253e-07 58.8833 2.82229 57.4 4.8L51.4 12.8Z" fill="white"/>
<path d="M63.4 12.8C62.2 14.4 59.8 14.4 58.6 12.8L52.6 4.8C51.1167 2.82229 52.5279 -2.26657e-06 55 -2.05045e-06L67 -1.00137e-06C69.4721 -7.85253e-07 70.8833 2.82229 69.4 4.8L63.4 12.8Z" fill="white"/>
<path d="M75.4 12.8C74.2 14.4 71.8 14.4 70.6 12.8L64.6 4.8C63.1167 2.82229 64.5279 -2.26657e-06 67 -2.05045e-06L79 -1.00137e-06C81.4721 -7.85253e-07 82.8833 2.82229 81.4 4.8L75.4 12.8Z" fill="white"/>
<path d="M87.4 12.8C86.2 14.4 83.8 14.4 82.6 12.8L76.6 4.8C75.1167 2.82229 76.5279 -2.26657e-06 79 -2.05045e-06L91 -1.00137e-06C93.4721 -7.85253e-07 94.8833 2.82229 93.4 4.8L87.4 12.8Z" fill="white"/>
<path d="M99.4 12.8C98.2 14.4 95.8 14.4 94.6 12.8L88.6 4.8C87.1167 2.82229 88.5279 -2.26657e-06 91 -2.05045e-06L103 -1.00137e-06C105.472 -7.85253e-07 106.883 2.82229 105.4 4.8L99.4 12.8Z" fill="white"/>
<path d="M111.4 12.8C110.2 14.4 107.8 14.4 106.6 12.8L100.6 4.8C99.1167 2.82229 100.528 -2.26657e-06 103 -2.05045e-06L115 -1.00137e-06C117.472 -7.85253e-07 118.883 2.82229 117.4 4.8L111.4 12.8Z" fill="white"/>
<path d="M123.4 12.8C122.2 14.4 119.8 14.4 118.6 12.8L112.6 4.8C111.117 2.82229 112.528 -2.26657e-06 115 -2.05045e-06L127 -1.00137e-06C129.472 -7.85253e-07 130.883 2.82229 129.4 4.8L123.4 12.8Z" fill="white"/>
<path d="M135.4 12.8C134.2 14.4 131.8 14.4 130.6 12.8L124.6 4.8C123.117 2.82229 124.528 -2.26657e-06 127 -2.05045e-06L139 -1.00137e-06C141.472 -7.85253e-07 142.883 2.82229 141.4 4.8L135.4 12.8Z" fill="white"/>
<path d="M147.4 12.8C146.2 14.4 143.8 14.4 142.6 12.8L136.6 4.8C135.117 2.82229 136.528 -2.26657e-06 139 -2.05045e-06L151 -1.00137e-06C153.472 -7.85253e-07 154.883 2.82229 153.4 4.8L147.4 12.8Z" fill="white"/>
<path d="M159.4 12.8C158.2 14.4 155.8 14.4 154.6 12.8L148.6 4.8C147.117 2.82229 148.528 -2.26657e-06 151 -2.05045e-06L163 -1.00137e-06C165.472 -7.85253e-07 166.883 2.82229 165.4 4.8L159.4 12.8Z" fill="white"/>
<path d="M171.4 12.8C170.2 14.4 167.8 14.4 166.6 12.8L160.6 4.8C159.117 2.82229 160.528 -2.26657e-06 163 -2.05045e-06L175 -1.00137e-06C177.472 -7.85253e-07 178.883 2.82229 177.4 4.8L171.4 12.8Z" fill="white"/>
<path d="M183.4 12.8C182.2 14.4 179.8 14.4 178.6 12.8L172.6 4.8C171.117 2.82229 172.528 -2.26657e-06 175 -2.05045e-06L187 -1.00137e-06C189.472 -7.85253e-07 190.883 2.82229 189.4 4.8L183.4 12.8Z" fill="white"/>
<path d="M195.4 12.8C194.2 14.4 191.8 14.4 190.6 12.8L184.6 4.8C183.117 2.82229 184.528 -2.26657e-06 187 -2.05045e-06L199 -1.00137e-06C201.472 -7.85253e-07 202.883 2.82229 201.4 4.8L195.4 12.8Z" fill="white"/>
<path d="M207.4 12.8C206.2 14.4 203.8 14.4 202.6 12.8L196.6 4.8C195.117 2.82229 196.528 -2.26657e-06 199 -2.05045e-06L211 -1.00137e-06C213.472 -7.85253e-07 214.883 2.82229 213.4 4.8L207.4 12.8Z" fill="white"/>
<path d="M219.4 12.8C218.2 14.4 215.8 14.4 214.6 12.8L208.6 4.8C207.117 2.82229 208.528 -2.26657e-06 211 -2.05045e-06L223 -1.00137e-06C225.472 -7.85253e-07 226.883 2.82229 225.4 4.8L219.4 12.8Z" fill="white"/>
<path d="M231.4 12.8C230.2 14.4 227.8 14.4 226.6 12.8L220.6 4.8C219.117 2.82229 220.528 -2.26657e-06 223 -2.05045e-06L235 -1.00137e-06C237.472 -7.85253e-07 238.883 2.82229 237.4 4.8L231.4 12.8Z" fill="white"/>
<path d="M243.4 12.8C242.2 14.4 239.8 14.4 238.6 12.8L232.6 4.8C231.117 2.82229 232.528 -2.26657e-06 235 -2.05045e-06L247 -1.00137e-06C249.472 -7.85253e-07 250.883 2.82229 249.4 4.8L243.4 12.8Z" fill="white"/>
<path d="M255.4 12.8C254.2 14.4 251.8 14.4 250.6 12.8L244.6 4.8C243.117 2.82229 244.528 -2.26657e-06 247 -2.05045e-06L259 -1.00137e-06C261.472 -7.85253e-07 262.883 2.82229 261.4 4.8L255.4 12.8Z" fill="white"/>
<path d="M267.4 12.8C266.2 14.4 263.8 14.4 262.6 12.8L256.6 4.8C255.117 2.82229 256.528 -2.26657e-06 259 -2.05045e-06L271 -1.00137e-06C273.472 -7.85253e-07 274.883 2.82229 273.4 4.8L267.4 12.8Z" fill="white"/>
<path d="M279.4 12.8C278.2 14.4 275.8 14.4 274.6 12.8L268.6 4.8C267.117 2.82229 268.528 -2.26657e-06 271 -2.05045e-06L283 -1.00137e-06C285.472 -7.85253e-07 286.883 2.82229 285.4 4.8L279.4 12.8Z" fill="white"/>
<path d="M291.4 12.8C290.2 14.4 287.8 14.4 286.6 12.8L280.6 4.8C279.117 2.82229 280.528 -2.26657e-06 283 -2.05045e-06L295 -1.00137e-06C297.472 -7.85253e-07 298.883 2.82229 297.4 4.8L291.4 12.8Z" fill="white"/>
<path d="M303.4 12.8C302.2 14.4 299.8 14.4 298.6 12.8L292.6 4.8C291.117 2.82229 292.528 -2.26657e-06 295 -2.05045e-06L307 -1.00137e-06C309.472 -7.85253e-07 310.883 2.82229 309.4 4.8L303.4 12.8Z" fill="white"/>
<path d="M315.4 12.8C314.2 14.4 311.8 14.4 310.6 12.8L304.6 4.8C303.117 2.82229 304.528 -2.26657e-06 307 -2.05045e-06L319 -1.00137e-06C321.472 -7.85253e-07 322.883 2.82229 321.4 4.8L315.4 12.8Z" fill="white"/>
<path d="M327.4 12.8C326.2 14.4 323.8 14.4 322.6 12.8L316.6 4.8C315.117 2.82229 316.528 -2.26657e-06 319 -2.05045e-06L331 -1.00137e-06C333.472 -7.85253e-07 334.883 2.82229 333.4 4.8L327.4 12.8Z" fill="white"/>
<path d="M339.4 12.8C338.2 14.4 335.8 14.4 334.6 12.8L328.6 4.8C327.117 2.82229 328.528 -2.26657e-06 331 -2.05045e-06L343 -1.00137e-06C345.472 -7.85253e-07 346.883 2.82229 345.4 4.8L339.4 12.8Z" fill="white"/>
<path d="M351.4 12.8C350.2 14.4 347.8 14.4 346.6 12.8L340.6 4.8C339.117 2.82229 340.528 -2.26657e-06 343 -2.05045e-06L355 -1.00137e-06C357.472 -7.85253e-07 358.883 2.82229 357.4 4.8L351.4 12.8Z" fill="white"/>
<path d="M363.4 12.8C362.2 14.4 359.8 14.4 358.6 12.8L352.6 4.8C351.117 2.82229 352.528 -2.26657e-06 355 -2.05045e-06L367 -1.00137e-06C369.472 -7.85253e-07 370.883 2.82229 369.4 4.8L363.4 12.8Z" fill="white"/>
<path d="M375.4 12.8C374.2 14.4 371.8 14.4 370.6 12.8L364.6 4.8C363.117 2.82229 364.528 -2.26657e-06 367 -2.05045e-06L379 -1.00137e-06C381.472 -7.85253e-07 382.883 2.82229 381.4 4.8L375.4 12.8Z" fill="white"/>
</g>
</svg>
