<svg width="21" height="20" viewBox="0 0 21 20" fill="none" xmlns="http://www.w3.org/2000/svg">
<path d="M10.5 1.66675C8.31666 1.66675 6.54166 3.44175 6.54166 5.62508C6.54166 7.76675 8.21666 9.50008 10.4 9.57508C10.4667 9.56675 10.5333 9.56675 10.5833 9.57508C10.6 9.57508 10.6083 9.57508 10.625 9.57508C10.6333 9.57508 10.6333 9.57508 10.6417 9.57508C12.775 9.50008 14.45 7.76675 14.4583 5.62508C14.4583 3.44175 12.6833 1.66675 10.5 1.66675Z" fill="#6C7278"/>
<path d="M14.7333 11.7917C12.4083 10.2417 8.61666 10.2417 6.275 11.7917C5.21666 12.5 4.63333 13.4583 4.63333 14.4833C4.63333 15.5083 5.21666 16.4583 6.26666 17.1583C7.43333 17.9417 8.96666 18.3333 10.5 18.3333C12.0333 18.3333 13.5667 17.9417 14.7333 17.1583C15.7833 16.45 16.3667 15.5 16.3667 14.4667C16.3583 13.4417 15.7833 12.4917 14.7333 11.7917Z" fill="#6C7278"/>
</svg>
