<svg width="21" height="20" viewBox="0 0 21 20" fill="none" xmlns="http://www.w3.org/2000/svg">
<path d="M10.633 9.68341C10.608 9.68341 10.5913 9.68341 10.5663 9.68341C10.5247 9.67508 10.4663 9.67508 10.4163 9.68341C7.99968 9.60841 6.17468 7.70841 6.17468 5.36675C6.17468 2.98341 8.11635 1.04175 10.4997 1.04175C12.883 1.04175 14.8247 2.98341 14.8247 5.36675C14.8164 7.70841 12.983 9.60841 10.658 9.68341C10.6497 9.68341 10.6413 9.68341 10.633 9.68341ZM10.4997 2.29175C8.80802 2.29175 7.42468 3.67508 7.42468 5.36675C7.42468 7.03341 8.72468 8.37508 10.383 8.43341C10.4247 8.42508 10.5413 8.42508 10.6497 8.43341C12.283 8.35841 13.5663 7.01675 13.5747 5.36675C13.5747 3.67508 12.1913 2.29175 10.4997 2.29175Z" fill="#6C7278"/>
<path d="M10.6413 18.7916C9.00801 18.7916 7.36634 18.3749 6.12467 17.5416C4.96634 16.7749 4.33301 15.7249 4.33301 14.5833C4.33301 13.4416 4.96634 12.3833 6.12467 11.6083C8.62467 9.94992 12.6747 9.94992 15.158 11.6083C16.308 12.3749 16.9497 13.4249 16.9497 14.5666C16.9497 15.7083 16.3163 16.7666 15.158 17.5416C13.908 18.3749 12.2747 18.7916 10.6413 18.7916ZM6.81634 12.6583C6.01634 13.1916 5.58301 13.8749 5.58301 14.5916C5.58301 15.2999 6.02467 15.9833 6.81634 16.5083C8.89134 17.8999 12.3913 17.8999 14.4663 16.5083C15.2663 15.9749 15.6997 15.2916 15.6997 14.5749C15.6997 13.8666 15.258 13.1833 14.4663 12.6583C12.3913 11.2749 8.89134 11.2749 6.81634 12.6583Z" fill="#6C7278"/>
</svg>
