<svg width="15" height="17" viewBox="0 0 15 17" fill="none" xmlns="http://www.w3.org/2000/svg">
<path fill-rule="evenodd" clip-rule="evenodd" d="M14.6452 1.96352C14.4066 1.66008 14.0696 1.44886 13.6921 1.36602L7.85879 0.0435947C7.62345 -0.0145316 7.37746 -0.0145316 7.14212 0.0435947L1.30879 1.33275C0.931277 1.41559 0.594352 1.62681 0.355682 1.93026C0.117012 2.2337 -0.00856235 2.61051 0.000453803 2.99618V6.38126C0.00100121 8.57393 0.660375 10.716 1.89337 12.5308C3.12637 14.3456 4.87633 15.7496 6.91712 16.5615C7.29331 16.7017 7.7076 16.7017 8.08379 16.5615C10.1246 15.7496 11.8745 14.3456 13.1075 12.5308C14.3405 10.716 14.9999 8.57393 15.0005 6.38126V3.02945C15.0095 2.64378 14.8839 2.26697 14.6452 1.96352ZM6.2754 10.4437C6.43196 10.5946 6.6413 10.6784 6.85874 10.677C7.07611 10.6941 7.29151 10.6253 7.45874 10.4854L11.4671 6.54371C11.5453 6.46656 11.6076 6.37475 11.6504 6.27353C11.6931 6.17231 11.7155 6.06365 11.7163 5.95377C11.7171 5.84389 11.6962 5.73493 11.6549 5.63311C11.6135 5.5313 11.5526 5.43862 11.4754 5.36038C11.3983 5.28213 11.3064 5.21985 11.2052 5.17708C11.104 5.13432 10.9953 5.11191 10.8855 5.11114C10.7756 5.11036 10.6666 5.13124 10.5648 5.17257C10.463 5.21391 10.3703 5.27489 10.2921 5.35205L6.86707 8.68538L5.55041 7.39371C5.39427 7.2385 5.18306 7.15138 4.9629 7.15138C4.74275 7.15138 4.53154 7.2385 4.3754 7.39371C4.2973 7.47118 4.2353 7.56335 4.193 7.6649C4.15069 7.76645 4.12891 7.87537 4.12891 7.98538C4.12891 8.09539 4.15069 8.20431 4.193 8.30586C4.2353 8.40741 4.2973 8.49958 4.3754 8.57705L6.2754 10.4437Z" fill="white"/>
</svg>
